<svg width="64" height="64" viewBox="0 0 64 64" fill="none" xmlns="http://www.w3.org/2000/svg">
<path d="M50.6667 62.1334L49.0667 60.8C43.7333 55.7334 40 52.5334 40 48.5334C40 45.3334 42.6667 42.6667 45.8667 42.6667C47.7333 42.6667 49.6 43.4667 50.6667 44.8C51.7333 43.4667 53.6 42.6667 55.4667 42.6667C58.6667 42.6667 61.3333 45.0667 61.3333 48.5334C61.3333 52.5334 57.6 55.7334 52.2667 60.8L50.6667 62.1334Z" fill="#50B2C0"/>
<path d="M48 5.33331C50.9334 5.33331 53.3334 7.73331 53.3334 10.6666V34.88L50.6667 34.6666L48 34.88V10.6666H34.6667V32L28 26L21.3334 32V10.6666H16V53.3333H34.88C35.2 55.2533 35.8667 57.04 36.8 58.6666H16C13.0667 58.6666 10.6667 56.2666 10.6667 53.3333V10.6666C10.6667 7.73331 13.0667 5.33331 16 5.33331H48Z" fill="#8381D9"/>
</svg>
